<?xml version="1.0" standalone="no"?>
<!DOCTYPE svg PUBLIC "-//W3C//DTD SVG 20010904//EN"
 "http://www.w3.org/TR/2001/REC-SVG-20010904/DTD/svg10.dtd">
<svg version="1.0" xmlns="http://www.w3.org/2000/svg"
 width="346.000000pt" height="346.000000pt" viewBox="0 0 346.000000 346.000000"
 preserveAspectRatio="xMidYMid meet">

<g transform="translate(0.000000,346.000000) scale(0.100000,-0.100000)"
fill="#000000" stroke="none">
<path d="M2165 3282 c-45 -24 -104 -70 -167 -130 l-97 -94 -173 -2 c-118 -2
-202 -8 -263 -20 -88 -18 -89 -18 -105 2 -8 11 -42 57 -75 102 -39 54 -81 97
-122 127 -97 69 -109 61 -213 -145 -61 -122 -83 -195 -96 -317 -4 -38 -17 -97
-29 -130 -18 -49 -44 -161 -80 -341 -5 -21 -6 -21 -87 -8 -128 21 -264 29
-272 16 -8 -14 14 -19 124 -27 47 -4 117 -12 155 -18 l70 -12 3 -46 3 -45
-157 -22 c-86 -12 -163 -26 -171 -31 -34 -19 10 -19 133 -1 199 30 204 29 204
-41 0 -21 -5 -29 -17 -29 -30 0 -227 -50 -237 -60 -19 -19 0 -18 99 5 182 40
160 44 185 -33 41 -125 73 -182 187 -322 24 -28 43 -58 43 -66 0 -7 -25 -42
-57 -76 -122 -136 -187 -263 -241 -468 -35 -132 -36 -139 -36 -330 0 -152 4
-211 17 -265 34 -137 109 -254 191 -298 l41 -22 -72 -3 c-53 -2 -73 -7 -73
-16 0 -9 19 -16 58 -20 31 -4 95 -11 142 -17 116 -15 1224 -6 1423 11 116 11
176 11 279 2 131 -12 173 -7 145 16 -8 7 -69 14 -153 18 -76 3 -155 7 -174 10
-32 5 -33 7 -17 19 10 7 45 14 76 14 215 1 421 133 518 331 98 202 127 410 84
615 -31 153 -104 285 -156 285 -12 0 -31 -10 -43 -23 -26 -28 -28 -63 -7 -197
17 -113 19 -244 4 -326 -26 -146 -145 -316 -260 -375 -32 -16 -62 -29 -67 -29
-4 0 -9 87 -10 194 -2 296 -32 431 -152 686 -39 81 -66 157 -79 215 l-19 90
33 35 c89 95 157 212 195 339 l23 73 36 -5 c82 -13 321 -20 321 -9 0 16 -26
22 -93 22 -34 0 -106 3 -160 7 l-98 6 6 66 c4 36 11 70 16 75 5 6 73 22 151
38 78 15 146 32 152 38 16 16 -17 13 -165 -15 -148 -28 -149 -28 -149 41 0 61
-44 222 -79 291 -16 34 -53 91 -81 128 l-50 66 0 87 c-1 182 -26 284 -88 353
-55 61 -80 63 -177 11z m144 -17 c61 -70 76 -124 87 -319 l7 -129 55 -76 c30
-42 63 -93 73 -113 27 -52 67 -206 75 -287 l6 -67 -98 -18 c-183 -33 -234 -47
-234 -62 0 -8 4 -14 9 -14 10 0 264 47 299 55 21 5 23 3 19 -22 -3 -15 -8 -45
-12 -66 l-6 -39 -157 7 c-153 6 -193 1 -178 -24 5 -7 57 -11 154 -11 81 0 153
-4 160 -8 10 -7 7 -26 -14 -88 -33 -100 -66 -158 -149 -261 l-66 -82 11 -63
c6 -35 20 -94 31 -132 11 -37 18 -70 16 -73 -3 -2 -31 -15 -63 -28 -70 -28
-86 -51 -29 -42 21 3 55 15 77 26 l39 19 28 -57 c47 -95 74 -172 65 -181 -5
-5 -38 -19 -73 -32 -63 -22 -92 -48 -54 -48 10 0 48 11 85 24 l67 24 10 -49
c6 -27 14 -74 17 -103 6 -52 6 -55 -22 -69 -16 -8 -53 -22 -81 -31 -97 -32
-56 -49 50 -21 32 8 60 15 62 15 3 0 5 -49 5 -109 l0 -108 -72 -23 c-84 -27
-82 -26 -74 -38 3 -6 32 -5 73 3 38 7 70 11 72 9 3 -2 -2 -19 -11 -37 -9 -19
-12 -40 -8 -52 14 -38 -4 -58 -71 -81 -96 -33 -87 -58 14 -35 45 11 46 4 11
-66 -51 -104 -129 -148 -250 -141 -34 1 -66 -1 -70 -5 -4 -4 -43 -7 -87 -7
l-80 0 21 23 c12 13 33 54 46 93 13 38 35 98 50 134 47 118 86 311 93 461 6
146 1 189 -22 189 -12 0 -15 -18 -15 -92 -1 -185 -48 -411 -129 -613 -48 -119
-61 -143 -90 -162 -43 -29 -63 -29 -97 0 -38 33 -36 84 9 222 59 183 71 259
71 452 1 124 -2 175 -11 184 -21 21 -26 3 -24 -96 4 -182 -24 -346 -90 -545
-34 -101 -41 -188 -20 -228 l12 -22 -174 0 c-96 0 -195 -3 -221 -6 l-46 -7 15
37 c20 47 8 118 -41 255 -50 138 -85 320 -93 486 -5 115 -9 140 -21 140 -12 0
-15 -22 -18 -124 -3 -157 24 -328 79 -489 55 -161 65 -217 44 -248 -30 -46
-95 -23 -129 45 -69 138 -176 616 -176 789 0 21 -28 13 -35 -10 -9 -27 3 -185
20 -268 57 -270 121 -492 165 -568 22 -36 21 -36 -49 -20 -44 10 -49 14 -39
27 10 13 10 14 -2 4 -22 -20 -102 -15 -164 8 -38 15 -70 37 -102 71 l-46 50
36 24 c43 29 45 46 10 63 -17 7 -24 17 -20 26 3 10 -1 15 -13 15 -10 0 -21 9
-24 20 -4 15 4 24 31 37 20 10 38 24 40 32 4 11 -5 12 -44 6 -48 -7 -48 -7
-31 12 21 24 22 33 2 33 -8 0 -15 5 -15 10 0 6 7 13 15 16 8 4 15 13 15 21 0
15 -23 15 -62 -1 -12 -6 -17 -2 -20 16 -3 21 3 25 56 38 84 21 85 40 2 40 -64
0 -93 13 -39 18 33 3 42 11 23 22 -8 5 -19 5 -26 0 -6 -6 -14 -7 -17 -4 -5 6
2 164 8 172 1 1 15 -2 31 -8 36 -14 114 -4 114 15 0 8 -22 17 -61 24 -34 6
-64 12 -66 15 -2 2 1 31 8 65 10 52 14 59 29 51 9 -5 40 -12 70 -16 68 -9 65
13 -6 39 -27 10 -53 22 -58 27 -6 6 2 37 19 81 24 63 30 70 49 64 41 -13 127
-27 133 -22 11 12 -10 27 -67 48 -33 12 -60 24 -60 26 0 2 18 31 41 65 59 89
129 168 149 168 9 0 25 8 34 19 16 17 16 19 -6 26 -13 4 -26 7 -30 6 -4 0 -13
9 -19 22 -9 18 -9 20 2 10 15 -15 33 -17 25 -4 -4 5 -2 21 4 36 8 20 7 31 -1
42 -14 16 -54 14 -54 -4 0 -28 -15 -21 -54 24 -46 54 -110 172 -136 252 -19
59 -14 71 34 71 49 0 256 33 266 42 19 17 -14 24 -82 17 -38 -5 -94 -8 -125
-8 -31 -1 -69 -6 -83 -13 -30 -13 -33 -11 -41 30 l-6 32 170 0 c159 0 201 7
170 27 -7 4 -73 9 -146 11 -124 4 -132 5 -127 23 4 11 2 19 -4 19 -5 0 -13 -9
-16 -20 -3 -11 -15 -20 -26 -20 -15 0 -19 7 -19 36 0 30 3 35 17 30 19 -8 262
-56 281 -56 6 0 12 6 12 14 0 10 -46 25 -155 52 -85 20 -155 41 -155 45 0 28
63 297 84 359 14 41 26 91 26 110 1 92 29 190 89 316 34 71 71 139 83 151 l21
22 31 -21 c58 -40 127 -113 163 -173 59 -97 68 -105 123 -98 l47 5 18 -48 c9
-27 19 -55 21 -63 4 -11 8 -11 16 -3 11 11 8 32 -13 112 -5 19 102 35 113 17
4 -7 8 -40 8 -75 0 -46 3 -63 12 -60 16 6 30 84 23 119 -6 26 -4 27 47 33 90
11 104 -6 73 -94 -18 -50 -19 -74 -4 -64 16 10 59 105 59 132 0 20 5 22 45 22
45 0 49 3 154 103 96 91 216 177 247 177 7 0 26 -16 43 -35z m760 -1981 c12
-24 21 -47 21 -51 0 -5 -25 -6 -55 -5 l-55 4 0 57 c0 71 15 90 46 60 13 -12
32 -41 43 -65z m35 -92 c3 -5 9 -28 15 -51 9 -40 8 -43 -17 -53 -17 -6 -41 -7
-62 -1 -33 7 -35 11 -40 55 l-6 47 36 4 c19 2 43 4 52 5 9 1 19 -2 22 -6z m39
-190 c3 -26 2 -51 -2 -55 -5 -4 -35 -7 -67 -5 l-59 3 -3 50 -3 50 64 2 65 2 5
-47z m3 -123 c-3 -17 -6 -40 -6 -50 0 -16 -8 -19 -44 -19 -72 0 -96 13 -96 54
l0 35 68 4 c37 2 71 4 76 5 5 1 6 -12 2 -29z m-74 -107 c56 -4 58 -5 52 -31
-13 -53 -22 -61 -68 -61 -24 0 -57 5 -74 11 l-31 10 17 45 c12 33 20 43 32 38
8 -4 41 -9 72 -12z m-24 -132 c48 0 50 -6 23 -66 -19 -41 -20 -42 -57 -35 -49
9 -79 25 -98 53 -13 18 -13 25 -1 48 14 27 15 28 52 14 21 -7 57 -13 81 -14z
m-108 -120 c22 -11 48 -20 58 -20 30 0 33 -11 11 -41 -16 -23 -28 -29 -57 -29
-40 0 -92 31 -115 68 -13 23 -13 27 11 53 25 28 25 29 39 9 8 -11 32 -29 53
-40z m-116 -66 c16 -20 51 -46 78 -59 l49 -23 -41 -32 -41 -33 -27 20 c-15 11
-44 44 -65 74 l-38 53 23 18 c13 10 25 18 28 18 3 0 18 -16 34 -36z m-35 -137
l33 -36 -47 -23 -47 -23 -24 30 c-13 17 -33 56 -43 88 l-20 57 32 13 c31 13
32 13 58 -28 14 -22 40 -57 58 -78z m-127 -67 c9 -17 13 -30 8 -30 -4 0 -15
-3 -24 -6 -12 -4 -16 0 -16 15 0 12 6 21 13 22 10 0 10 2 0 6 -7 2 -13 9 -13
14 0 18 15 8 32 -21z m-85 -15 c-2 -29 -6 -35 -24 -35 -13 0 -23 3 -23 6 0 7
40 64 45 64 2 0 3 -16 2 -35z"/>
<path d="M2213 3157 c-47 -51 -116 -168 -106 -178 7 -7 28 15 66 67 62 85 63
85 82 -6 16 -81 27 -110 40 -110 24 0 26 17 9 92 -16 71 -45 141 -62 152 -5 3
-18 -5 -29 -17z"/>
<path d="M1050 3100 c-16 -29 -50 -168 -50 -202 0 -20 5 -28 18 -28 16 0 21
16 36 100 10 55 22 98 26 95 5 -3 28 -33 51 -65 40 -57 69 -76 69 -47 0 20
-111 167 -126 167 -7 0 -18 -9 -24 -20z"/>
<path d="M1364 2520 c-50 -25 -84 -81 -84 -140 0 -35 6 -48 35 -77 31 -31 40
-35 68 -29 44 8 78 35 104 82 40 69 26 141 -32 169 -42 19 -42 19 -91 -5z m84
-81 c4 -20 -40 -84 -58 -84 -21 0 -24 39 -5 75 12 23 22 30 38 28 12 -2 23
-10 25 -19z"/>
<path d="M1960 2523 c-23 -8 -70 -55 -86 -85 -22 -42 -18 -119 9 -159 52 -78
110 -76 165 5 27 41 32 57 32 108 0 99 -52 156 -120 131z m58 -65 c18 -18 14
-83 -7 -109 -16 -20 -21 -21 -35 -10 -12 10 -14 24 -9 59 8 65 26 85 51 60z"/>
<path d="M855 2450 c-3 -5 1 -10 9 -10 8 0 18 5 21 10 3 6 -1 10 -9 10 -8 0
-18 -4 -21 -10z"/>
<path d="M1644 2320 c-63 -20 -67 -53 -12 -116 38 -43 58 -43 97 1 38 44 49
81 29 101 -19 19 -75 26 -114 14z m75 -39 c12 -8 11 -15 -9 -45 -23 -33 -26
-34 -43 -18 -36 32 -40 51 -15 62 30 12 50 12 67 1z"/>
<path d="M1646 2105 c-20 -31 -48 -61 -64 -67 -40 -17 -112 -14 -150 6 -41 21
-68 15 -53 -13 16 -29 74 -51 136 -51 61 0 86 9 127 47 l26 25 12 -22 c27 -51
127 -77 183 -49 36 19 77 62 77 81 0 26 -20 22 -60 -12 -26 -23 -44 -30 -76
-30 -56 0 -84 24 -91 77 -9 71 -26 73 -67 8z"/>
<path d="M900 1924 c0 -17 22 -14 28 4 2 7 -3 12 -12 12 -9 0 -16 -7 -16 -16z"/>
<path d="M952 1872 c-13 -4 -23 -10 -23 -14 1 -5 1 -12 1 -17 0 -11 39 -3 58
12 29 22 11 32 -36 19z"/>
<path d="M995 1769 c-11 -16 -1 -19 13 -3 7 8 8 14 3 14 -5 0 -13 -5 -16 -11z"/>
<path d="M954 1438 c-4 -5 -3 -12 0 -15 7 -8 36 4 36 15 0 11 -29 11 -36 0z"/>
<path d="M926 1384 c-19 -19 -20 -28 -3 -42 16 -13 42 1 32 17 -4 7 -1 18 5
26 18 21 -13 20 -34 -1z"/>
<path d="M820 1211 c0 -5 7 -11 14 -14 10 -4 13 -1 9 9 -6 15 -23 19 -23 5z"/>
<path d="M770 1025 c0 -16 9 -19 34 -9 20 8 11 24 -15 24 -10 0 -19 -7 -19
-15z"/>
<path d="M795 980 c3 -5 10 -10 16 -10 5 0 9 5 9 10 0 6 -7 10 -16 10 -8 0
-12 -4 -9 -10z"/>
<path d="M750 896 c0 -2 7 -7 16 -10 8 -3 12 -2 9 4 -6 10 -25 14 -25 6z"/>
<path d="M740 830 c-8 -5 -12 -12 -8 -15 9 -9 48 4 48 16 0 12 -21 11 -40 -1z"/>
<path d="M835 300 c3 -5 12 -7 20 -3 21 7 19 13 -6 13 -11 0 -18 -4 -14 -10z"/>
<path d="M885 255 c-25 -11 -24 -18 1 -14 3 1 18 -10 32 -24 15 -14 41 -27 58
-29 29 -4 31 -2 20 14 -6 10 -17 18 -24 18 -7 0 -23 11 -35 25 -20 22 -24 23
-52 10z"/>
<path d="M2340 180 c-24 -19 -24 -20 -4 -20 12 0 25 7 28 16 9 24 4 25 -24 4z"/>
<path d="M2990 1328 c0 -4 7 -8 15 -8 8 0 15 4 15 8 0 5 -7 9 -15 9 -8 0 -15
-4 -15 -9z"/>
<path d="M3100 2395 c0 -8 7 -15 16 -15 14 0 14 3 4 15 -7 8 -14 15 -16 15 -2
0 -4 -7 -4 -15z"/>
<path d="M200 2390 c0 -5 9 -10 21 -10 11 0 17 5 14 10 -3 6 -13 10 -21 10 -8
0 -14 -4 -14 -10z"/>
<path d="M165 2150 c3 -5 15 -10 26 -10 11 0 17 5 14 10 -3 6 -15 10 -26 10
-11 0 -17 -4 -14 -10z"/>
<path d="M3100 2086 c0 -7 7 -19 15 -26 16 -13 20 -3 9 24 -8 20 -24 21 -24 2z"/>
<path d="M290 1870 c0 -5 5 -10 10 -10 6 0 10 5 10 10 0 6 -4 10 -10 10 -5 0
-10 -4 -10 -10z"/>
</g>
</svg>
